<?xml version="1.0" standalone="no"?>
<!DOCTYPE svg PUBLIC "-//W3C//DTD SVG 20010904//EN"
 "http://www.w3.org/TR/2001/REC-SVG-20010904/DTD/svg10.dtd">
<svg version="1.0" xmlns="http://www.w3.org/2000/svg"
 width="480.000000pt" height="480.000000pt" viewBox="0 0 480.000000 480.000000"
 preserveAspectRatio="xMidYMid meet">
<metadata>
Created by potrace 1.11, written by Peter Selinger 2001-2013
</metadata>
<g transform="translate(0.000000,480.000000) scale(0.100000,-0.100000)"
fill="#000000" stroke="none">
<path d="M3991 4596 c2 -17 0 -37 -4 -43 -9 -14 -57 -14 -57 0 0 13 -54 60
-57 50 -2 -5 -17 -7 -33 -5 -23 3 -30 0 -30 -12 0 -11 -9 -16 -30 -16 -20 0
-30 -5 -30 -15 0 -8 -5 -14 -11 -12 -6 1 -13 -6 -14 -15 -2 -10 3 -18 10 -18
8 0 14 -16 16 -44 4 -42 3 -44 -23 -42 -15 1 -29 -2 -31 -8 -2 -5 -13 0 -25
12 -25 25 -47 29 -38 7 3 -8 2 -14 -2 -14 -22 4 -33 -3 -28 -16 3 -8 1 -15 -4
-15 -5 0 -7 -7 -4 -15 4 -9 0 -15 -10 -15 -12 0 -16 -10 -16 -45 0 -26 5 -45
11 -45 17 0 48 -43 49 -67 0 -21 -4 -23 -60 -23 l-60 0 0 -75 c0 -60 3 -75 15
-75 14 0 20 -12 16 -33 -1 -4 8 -3 18 3 14 7 22 7 26 0 5 -8 11 -8 20 0 10 8
15 8 20 0 5 -8 13 -6 25 5 15 13 16 22 9 38 -8 18 -18 22 -49 21 l-40 -2 0 44
0 44 45 0 c33 0 45 4 45 15 0 8 7 15 15 15 11 0 15 12 15 45 0 33 -4 45 -15
45 -8 0 -15 7 -15 15 0 15 -10 19 -42 16 -10 -1 -18 4 -18 13 0 9 7 16 16 16
9 0 14 7 12 18 -4 26 10 42 38 42 15 0 24 -6 24 -15 0 -25 60 -23 96 3 28 21
34 96 9 106 -8 3 -15 10 -15 16 0 5 7 10 15 10 8 0 15 7 15 15 0 10 10 15 30
15 20 0 30 -5 30 -15 0 -8 7 -15 16 -15 8 0 13 -4 10 -8 -2 -4 4 -13 15 -20
12 -8 19 -8 19 -2 0 7 6 7 18 1 10 -5 24 -6 32 -1 7 4 19 6 27 3 9 -4 11 0 6
13 -4 11 -3 15 4 11 12 -8 12 11 0 29 -3 6 -3 14 1 18 4 4 7 14 7 23 0 21 34
33 63 22 18 -7 22 -16 22 -49 0 -29 4 -40 15 -40 8 0 15 -7 15 -15 0 -11 7
-14 25 -11 14 3 25 1 25 -4 0 -4 9 -6 20 -3 11 3 20 12 20 19 0 8 5 14 11 14
7 0 17 8 24 17 7 9 20 18 30 19 9 1 15 0 12 -3 -8 -8 33 -44 43 -38 5 3 5 -8
-1 -27 -5 -18 -9 -34 -9 -36 0 -2 -4 -1 -9 2 -5 4 -11 0 -14 -6 -6 -19 4 -48
16 -48 5 0 15 -8 22 -17 10 -14 26 -17 74 -15 38 1 61 -2 61 -8 0 -6 4 -9 9
-6 5 3 12 -1 15 -10 3 -8 10 -12 16 -9 6 3 7 -1 4 -9 -3 -9 -9 -14 -14 -11 -4
2 -13 -6 -19 -19 -9 -17 -19 -22 -37 -18 -18 3 -24 0 -25 -14 0 -11 -2 -29 -3
-41 -2 -15 4 -25 16 -29 10 -3 18 -12 18 -20 0 -10 13 -14 46 -14 37 0 45 -3
40 -15 -3 -8 -1 -15 4 -15 5 0 6 -8 3 -17 -4 -10 -7 -31 -6 -48 0 -29 -1 -30
-37 -27 -37 4 -57 -9 -45 -28 4 -7 13 -7 26 0 12 7 19 7 19 1 0 -6 11 -6 30
-1 17 5 30 5 30 0 0 -5 7 -7 16 -3 21 8 34 44 22 66 -5 11 -5 17 1 17 7 0 7 8
2 23 -5 13 -5 30 -1 38 5 8 6 20 2 25 -10 14 -40 25 -46 16 -3 -5 -20 -6 -39
-4 -30 3 -34 7 -35 33 0 19 4 29 14 29 8 0 14 7 14 15 0 8 6 15 14 15 15 0 28
58 15 66 -5 2 -6 11 -2 19 4 11 1 13 -11 9 -13 -5 -16 1 -16 26 0 27 -3 32
-20 27 -11 -3 -20 -1 -20 4 0 5 -12 6 -27 2 -16 -3 -36 -6 -45 -5 -11 0 -15
-4 -11 -14 3 -8 -1 -14 -11 -14 -15 0 -22 21 -16 45 2 6 2 18 2 28 0 9 6 17
14 17 23 0 18 57 -6 65 -11 4 -18 11 -15 16 4 5 -3 9 -14 9 -27 0 -52 11 -46
20 3 4 -7 10 -21 13 -20 3 -28 0 -31 -14 -5 -17 -15 -23 -35 -20 -4 0 -5 -6
-1 -15 3 -9 0 -14 -8 -12 -7 2 -13 -4 -14 -12 0 -8 -7 -15 -15 -15 -11 0 -16
14 -18 57 l-3 57 -90 -1 -90 0 2 -32z"/>
<path d="M3930 4314 c0 -8 -4 -13 -9 -9 -5 3 -12 -4 -16 -15 -4 -11 -9 -18
-13 -16 -4 2 -18 -11 -32 -30 -14 -18 -31 -34 -37 -34 -9 0 -13 -16 -13 -46 0
-38 -3 -45 -16 -40 -12 4 -15 0 -13 -17 2 -12 0 -27 -4 -34 -4 -6 -2 -15 4
-19 8 -5 8 -8 0 -14 -8 -4 -5 -14 9 -32 11 -15 20 -40 20 -57 0 -29 42 -86 54
-73 3 3 6 -2 6 -11 0 -9 7 -17 16 -17 8 0 12 -5 9 -10 -4 -6 7 -13 24 -16 17
-4 36 -13 42 -20 17 -21 192 -20 209 1 7 8 23 15 35 15 13 0 26 7 29 16 3 8
11 12 16 9 6 -4 10 -3 9 2 -4 21 2 33 16 33 8 0 15 7 15 15 0 8 6 15 14 15 15
0 28 48 14 52 -5 2 1 16 13 32 18 22 22 40 20 75 -2 28 -9 49 -17 54 -9 5 -14
18 -13 30 3 30 -11 58 -24 50 -6 -3 -7 -1 -3 5 7 11 -38 62 -54 62 -6 0 -10 7
-10 15 0 9 -9 15 -25 15 -14 0 -28 7 -31 15 -9 23 -244 22 -244 -1z"/>
<path d="M810 3637 c0 -5 -5 -5 -10 -2 -6 3 -13 0 -16 -8 -3 -10 -25 -15 -72
-16 -41 -1 -73 -8 -83 -17 -8 -8 -25 -14 -37 -14 -13 0 -22 -6 -22 -16 0 -10
-7 -14 -22 -12 -15 2 -30 -5 -41 -20 -10 -12 -23 -20 -28 -17 -5 4 -6 -2 -2
-11 5 -14 2 -16 -19 -12 -17 3 -29 -1 -37 -14 -20 -33 -31 -19 -31 42 0 47 -3
60 -15 60 -8 0 -15 7 -15 15 0 13 -23 15 -150 15 -131 0 -150 -2 -150 -16 0
-11 -6 -15 -20 -11 -10 3 -23 0 -29 -7 -5 -6 -9 -323 -9 -783 1 -649 3 -773
14 -773 8 0 14 -7 14 -15 0 -13 25 -15 165 -15 140 0 165 2 165 15 0 8 7 15
15 15 13 0 15 58 15 460 0 400 2 461 15 466 11 5 15 22 15 65 0 46 3 59 15 59
10 0 15 10 15 30 0 17 4 30 9 30 5 0 28 19 51 42 22 23 48 43 58 44 9 2 22 10
29 19 6 10 16 14 21 11 5 -3 20 2 33 12 13 9 31 18 39 20 35 7 70 8 70 1 0 -3
11 -4 25 -1 14 2 36 -3 50 -12 13 -9 40 -16 58 -16 26 0 36 -5 40 -19 3 -14
11 -17 31 -14 19 4 26 1 26 -11 0 -9 7 -16 16 -16 8 0 13 -4 9 -9 -3 -5 4 -12
15 -16 12 -4 20 -15 20 -28 0 -11 10 -31 22 -44 12 -13 17 -23 12 -23 -6 0 -8
-16 -6 -36 3 -22 7 -31 12 -24 6 9 11 7 19 -7 5 -11 8 -23 5 -25 -2 -3 -5
-218 -4 -477 0 -456 1 -472 20 -491 18 -18 34 -20 196 -20 l176 0 -2 28 c-1
15 -1 32 0 37 1 6 1 28 1 50 -2 94 -2 181 -1 190 2 9 1 29 -1 115 -1 19 0 38
1 43 5 19 3 76 -3 91 -4 10 -4 23 0 29 3 6 6 29 6 51 -1 23 -2 82 -3 131 -1
50 -1 95 0 100 2 10 1 45 -1 143 -1 29 1 55 3 58 3 3 2 21 -2 40 -4 18 -4 34
1 34 4 0 6 7 3 15 -4 8 -12 15 -20 15 -10 0 -14 15 -14 59 0 43 -4 60 -15 65
-8 3 -15 9 -14 13 4 22 -2 43 -10 38 -5 -3 -12 4 -16 15 -3 11 -13 20 -21 20
-9 0 -14 11 -14 30 0 20 -5 30 -15 30 -8 0 -15 5 -15 10 0 6 -9 19 -20 30 -11
11 -24 20 -30 20 -5 0 -10 7 -10 15 0 14 -17 20 -47 16 -7 -1 -13 5 -13 14 0
10 -10 15 -30 15 -19 0 -30 5 -30 14 0 18 -25 27 -38 14 -8 -8 -14 -3 -22 17
-6 17 -14 25 -20 19 -5 -5 -43 -8 -84 -6 -58 3 -76 7 -76 18 0 8 -11 14 -27
15 -16 0 -43 1 -61 2 -17 1 -32 -2 -32 -6z"/>
<path d="M3880 3636 c-7 -7 -10 -218 -10 -631 l0 -620 21 -13 c15 -9 18 -17
11 -24 -6 -6 -7 -21 -2 -38 5 -18 4 -32 -3 -39 -8 -8 -5 -11 11 -11 16 0 22
-6 22 -24 0 -13 7 -29 15 -36 8 -7 12 -17 8 -24 -3 -6 -3 -8 2 -4 13 12 35
-12 35 -38 0 -20 5 -24 30 -24 17 0 30 -5 30 -11 0 -18 53 -54 73 -51 11 2 16
-1 13 -6 -7 -11 21 -25 35 -17 4 3 14 -3 21 -15 11 -17 23 -20 96 -20 64 0 84
-3 88 -15 3 -8 16 -15 27 -15 12 0 36 -1 52 -2 17 -2 42 0 57 4 15 3 30 3 32
-1 3 -4 28 -5 58 -3 29 1 60 3 68 2 46 -1 56 0 66 14 6 9 14 13 17 9 4 -3 7
-1 7 6 0 7 3 10 8 8 4 -3 6 67 4 154 -3 154 -4 160 -25 168 -12 5 -30 5 -39
-1 -10 -5 -18 -5 -18 -1 0 4 -22 8 -50 8 -27 0 -50 -2 -50 -5 0 -3 -16 -5 -35
-5 -19 0 -35 3 -35 6 0 3 -11 4 -25 1 -18 -3 -25 0 -25 12 0 13 -11 16 -60 16
-33 0 -60 4 -60 10 0 13 -37 50 -50 50 -5 0 -10 14 -10 30 0 19 -5 30 -14 30
-12 0 -15 23 -18 111 -2 61 -1 112 2 114 3 2 3 56 0 120 -3 64 -3 118 0 120 3
2 3 38 0 80 -3 42 -3 78 -1 81 2 2 4 30 5 61 l1 58 48 0 c26 0 47 3 47 7 0 4
7 5 17 1 19 -8 81 -8 88 -1 3 3 25 2 50 -2 25 -4 45 -3 45 1 0 5 7 6 17 2 15
-6 72 -7 91 -3 4 1 15 2 25 1 9 -1 17 4 17 13 0 9 7 16 16 16 13 0 15 18 13
121 -1 66 0 122 2 124 2 2 2 28 1 59 -3 40 -8 56 -18 56 -8 0 -14 7 -14 15 0
8 -8 15 -17 16 -10 1 -27 2 -38 3 -11 0 -32 -2 -46 -6 -15 -3 -32 -1 -38 5 -8
8 -11 8 -11 -1 0 -9 -5 -10 -17 -4 -18 9 -102 7 -111 -3 -3 -3 -11 0 -19 6 -9
9 -13 8 -13 0 0 -8 -6 -9 -17 -3 -18 9 -102 7 -111 -3 -3 -3 -11 0 -19 6 -9 9
-13 8 -13 0 0 -8 -6 -9 -17 -3 -18 9 -102 7 -111 -3 -3 -3 -11 0 -19 6 -9 9
-13 8 -13 0 0 -8 -6 -9 -17 -3 -17 9 -84 7 -109 -2 -7 -3 -15 -2 -18 2 -11 10
-45 9 -56 -2z"/>
<path d="M1530 3541 c0 -47 4 -72 14 -80 8 -7 15 -20 15 -29 1 -9 1 -34 1 -54
0 -27 5 -38 15 -38 11 0 15 -12 15 -45 0 -33 4 -45 15 -45 12 0 15 -13 15 -60
0 -48 3 -60 16 -60 12 0 14 -9 12 -37 -2 -30 2 -42 20 -57 14 -11 20 -22 14
-28 -13 -13 -2 -58 14 -58 10 0 14 -15 14 -55 0 -43 5 -60 21 -76 14 -14 18
-24 11 -31 -13 -13 -3 -48 14 -48 10 0 14 -15 14 -59 0 -43 4 -60 15 -65 10
-3 15 -19 15 -46 0 -29 4 -40 15 -40 11 0 15 -12 15 -45 0 -33 4 -45 15 -45
10 0 14 -12 13 -42 0 -68 1 -80 12 -73 12 7 24 -38 18 -70 -3 -13 -2 -22 2
-20 4 3 15 -4 25 -15 10 -11 13 -20 7 -20 -8 0 -9 -7 -2 -24 6 -17 5 -26 -2
-28 -7 -3 -4 -12 8 -24 11 -11 21 -36 22 -57 5 -70 22 -77 187 -77 122 0 145
2 145 15 0 8 7 15 15 15 10 0 15 10 15 31 0 25 3 30 16 25 13 -5 15 -1 12 24
-3 17 -1 33 4 36 4 3 3 14 -2 25 -8 13 -7 19 0 19 6 0 8 4 5 10 -3 6 0 10 8
10 8 0 17 11 19 25 3 14 1 25 -5 25 -5 0 -5 6 2 13 6 8 8 17 4 20 -3 4 2 7 11
7 14 0 17 6 14 25 -3 14 -1 25 3 25 5 0 5 10 0 23 -10 27 -4 47 14 47 9 0 15
16 17 48 2 35 7 46 18 45 12 -2 14 8 12 52 -3 43 0 56 12 61 11 4 16 19 16 49
0 35 4 44 22 48 17 5 19 9 9 21 -8 10 -9 16 -1 21 7 4 7 12 0 26 -7 12 -7 19
-1 19 6 0 8 7 5 15 -4 9 0 15 10 15 13 0 16 12 16 60 0 47 3 60 15 60 12 0 15
14 15 70 0 52 4 72 14 76 8 3 13 14 11 25 -2 10 0 21 5 24 4 3 6 15 3 26 -4
16 -2 20 8 17 18 -6 28 -47 18 -74 -4 -13 -3 -27 4 -34 9 -10 9 -11 -1 -5 -11
6 -12 3 -3 -13 6 -12 16 -24 21 -27 6 -3 10 -37 10 -76 0 -57 3 -69 16 -69 13
0 15 -8 12 -40 -3 -32 0 -41 14 -46 15 -4 18 -17 18 -64 0 -44 4 -59 16 -64
12 -4 15 -15 12 -37 -4 -22 0 -34 14 -42 14 -9 18 -24 18 -69 0 -43 4 -58 14
-58 15 0 29 -37 16 -45 -13 -8 1 -45 16 -45 10 0 14 -15 14 -53 0 -41 5 -58
20 -72 13 -12 17 -23 11 -33 -11 -20 -2 -52 15 -52 10 0 14 -16 14 -60 0 -47
3 -60 15 -60 8 0 15 -7 15 -15 0 -8 7 -15 15 -15 8 0 15 -7 15 -15 0 -13 23
-15 150 -15 l150 0 0 30 c0 21 5 30 16 30 11 0 15 6 11 20 -3 11 -1 22 3 25 4
3 6 14 3 25 -4 14 0 20 11 20 12 0 16 10 16 44 0 36 4 45 22 49 17 5 19 9 9
21 -8 9 -8 16 -2 20 6 4 7 16 2 29 -10 27 -4 47 14 47 9 0 15 16 17 48 2 34 7
47 18 47 11 0 14 9 12 38 -3 27 1 39 12 43 12 5 16 21 16 65 0 48 3 59 16 59
10 0 14 6 10 15 -3 8 -2 15 3 15 4 0 6 14 3 30 -3 24 -1 30 14 30 17 0 19 7
16 60 -3 50 -1 60 12 60 12 0 16 11 16 45 0 33 4 45 15 45 11 0 15 12 15 51 0
43 2 50 14 40 19 -16 26 4 15 42 -4 15 -4 27 1 27 4 0 6 8 3 18 -2 10 3 24 11
31 10 8 16 29 16 52 0 28 4 39 15 39 10 0 15 11 16 38 1 37 1 42 -3 64 -2 7 4
12 12 13 11 0 16 14 18 48 2 36 7 47 20 47 14 0 17 9 15 47 -1 27 -2 60 -2 76
l-1 27 -165 0 c-140 0 -165 -2 -165 -15 0 -8 -6 -15 -14 -15 -16 0 -25 -55
-14 -95 6 -23 4 -26 -12 -22 -17 4 -19 -2 -22 -62 -2 -52 -6 -65 -18 -64 -12
2 -14 -8 -12 -57 3 -51 1 -60 -13 -60 -14 0 -16 -9 -13 -59 1 -33 1 -59 -2
-59 -21 2 -28 -6 -32 -34 -3 -18 -2 -46 3 -61 7 -26 6 -29 -11 -24 -18 5 -20
0 -20 -60 0 -55 -2 -64 -16 -59 -12 4 -14 1 -9 -13 3 -11 1 -22 -5 -26 -7 -4
-7 -12 0 -26 6 -10 7 -19 2 -19 -10 0 -9 -30 1 -47 4 -7 -1 -14 -12 -18 -18
-5 -20 -17 -23 -131 -2 -76 1 -125 7 -128 6 -2 -2 -7 -17 -11 -15 -4 -32 -4
-37 0 -7 4 -11 47 -11 106 0 76 -3 99 -13 99 -10 0 -14 19 -16 67 -1 45 -8 74
-18 85 -10 11 -14 30 -11 53 3 24 0 34 -7 31 -16 -6 -38 31 -24 39 7 5 6 11
-1 20 -7 8 -7 15 -1 19 13 9 1 46 -15 46 -10 0 -14 13 -14 44 0 30 -5 46 -15
50 -10 3 -15 19 -15 46 0 29 -4 40 -15 40 -11 0 -15 11 -15 35 0 20 -7 47 -16
60 -9 13 -13 29 -10 34 4 5 2 13 -4 16 -7 4 -8 11 -2 18 5 7 6 21 1 32 -4 11
-8 16 -8 10 -3 -26 -21 25 -21 58 0 26 -4 37 -15 37 -11 0 -15 12 -15 45 0 33
-4 45 -15 45 -8 0 -15 7 -15 15 0 13 -23 15 -149 15 -140 0 -149 -1 -154 -20
-3 -13 -10 -18 -21 -14 -12 5 -15 2 -10 -10 4 -11 1 -16 -10 -16 -12 0 -16
-10 -16 -45 0 -32 -4 -45 -14 -45 -19 0 -25 -20 -15 -48 5 -13 5 -21 1 -18 -5
3 -6 -9 -4 -26 4 -26 2 -30 -12 -25 -13 5 -16 -1 -16 -43 0 -38 -4 -50 -15
-50 -14 0 -20 -27 -16 -72 1 -10 -4 -18 -13 -18 -13 0 -16 -11 -16 -52 0 -32
-6 -58 -15 -68 -8 -9 -17 -32 -19 -51 -2 -19 -4 -38 -5 -42 0 -5 -5 -5 -11 -2
-11 7 -13 -3 -10 -54 1 -28 -1 -33 -15 -27 -13 5 -16 2 -11 -10 3 -9 3 -21 -1
-27 -4 -6 -6 -28 -4 -49 2 -29 -1 -38 -13 -38 -13 0 -16 -14 -16 -82 0 -61 -4
-86 -16 -99 -11 -12 -17 -36 -17 -69 0 -33 -4 -49 -11 -47 -10 3 -12 22 -15
125 -1 13 -7 22 -17 22 -8 0 -13 4 -9 9 3 5 1 12 -5 16 -6 4 -7 11 -4 17 13
21 4 151 -12 169 -11 12 -15 32 -13 63 3 35 0 47 -14 56 -12 7 -18 22 -17 43
3 55 0 78 -9 73 -13 -9 -21 19 -21 75 0 36 -4 49 -15 49 -10 0 -14 12 -13 43
0 66 -1 79 -11 73 -13 -8 -21 19 -21 68 0 23 -5 47 -10 52 -14 14 -31 74 -21
74 5 0 6 11 3 25 -2 14 -7 23 -11 21 -3 -2 -12 2 -18 10 -8 7 -9 15 -3 19 13
8 1 35 -16 35 -8 0 -14 7 -14 15 0 13 -25 15 -165 15 l-165 0 0 -69z"/>
<path d="M2850 1780 c0 -27 3 -30 30 -30 27 0 30 3 30 30 0 27 -3 30 -30 30
-27 0 -30 -3 -30 -30z"/>
<path d="M3990 1780 c0 -27 3 -30 30 -30 27 0 30 3 30 30 0 27 -3 30 -30 30
-27 0 -30 -3 -30 -30z"/>
<path d="M2490 1526 c0 -131 3 -165 14 -169 8 -3 21 0 29 6 17 14 29 57 15 57
-5 0 -6 5 -2 11 4 6 6 51 5 100 -2 73 1 90 13 95 9 3 16 12 16 20 0 21 44 17
65 -6 13 -14 21 -17 31 -9 7 5 14 6 17 2 8 -13 11 -122 4 -129 -3 -4 -2 -15 4
-25 5 -11 6 -19 1 -19 -4 0 -5 -21 -2 -47 4 -42 8 -48 28 -47 12 0 22 -3 22
-8 0 -5 4 -7 10 -3 5 3 6 15 1 27 -4 12 -5 38 -1 59 4 21 4 43 0 50 -4 6 -4
25 1 42 5 17 4 37 -1 47 -6 11 -5 21 1 27 8 8 8 13 0 17 -5 4 -8 13 -4 21 3 9
-1 15 -11 15 -9 0 -16 7 -16 15 0 13 -20 15 -120 15 l-120 0 0 -164z"/>
<path d="M2850 1521 l0 -169 28 7 27 7 3 162 2 162 -30 0 -30 0 0 -169z"/>
<path d="M3030 1659 c0 -23 -4 -30 -15 -25 -12 4 -14 -3 -12 -39 1 -25 0 -45
-3 -45 -3 0 -4 -19 -2 -42 2 -24 3 -53 3 -65 -1 -13 5 -23 13 -23 7 0 16 -9
19 -19 3 -15 11 -18 27 -14 14 4 26 -1 35 -14 14 -20 40 -24 63 -9 6 4 12 4
12 -1 0 -4 5 0 11 10 12 20 29 23 29 3 0 -8 7 -17 16 -20 15 -6 15 -8 0 -25
-9 -10 -18 -28 -19 -40 -1 -19 -7 -21 -59 -21 -43 0 -58 4 -58 14 0 17 -65 27
-80 12 -14 -14 -12 -26 5 -26 8 0 15 -7 15 -15 0 -8 7 -15 15 -15 8 0 15 -6
15 -14 0 -11 19 -15 79 -18 71 -3 83 0 106 19 22 20 26 31 25 75 -1 29 -1 103
-1 163 0 61 -1 122 -3 138 -2 15 0 30 4 32 4 2 5 16 2 30 l-4 25 -119 0 -119
0 0 -31z m180 -15 c0 -8 6 -14 14 -14 9 0 13 -14 14 -42 0 -24 2 -62 4 -85 2
-22 1 -40 -2 -38 -3 2 -14 -9 -25 -25 -15 -22 -23 -26 -40 -20 -12 5 -27 5
-34 0 -18 -11 -51 0 -51 16 0 8 -6 14 -13 14 -9 0 -14 17 -16 52 -1 28 -4 55
-7 59 -2 4 0 10 5 14 6 3 8 12 4 20 -7 20 15 45 33 38 8 -3 21 3 28 12 8 12
21 16 34 12 12 -3 25 -1 28 4 7 13 24 1 24 -17z"/>
<path d="M3420 1680 c-8 -5 -11 -10 -6 -10 6 0 1 -6 -9 -14 -11 -8 -20 -25
-20 -38 0 -13 -5 -22 -12 -20 -7 1 -13 -1 -14 -5 -4 -43 -3 -73 4 -73 4 0 3
-8 -2 -18 -6 -10 -6 -24 -1 -32 5 -8 7 -17 4 -21 -2 -4 4 -5 14 -2 16 4 18 0
14 -26 -3 -21 0 -31 8 -31 7 0 18 -8 25 -17 9 -12 27 -16 68 -15 31 0 61 3 67
7 5 3 10 2 10 -4 0 -6 7 -8 15 -5 8 4 15 12 15 20 0 8 7 14 15 14 8 0 15 7 15
15 0 8 7 15 15 15 8 0 15 7 15 15 0 10 -10 15 -30 15 -20 0 -30 -5 -30 -15 0
-9 -6 -15 -12 -13 -21 3 -59 -13 -53 -23 4 -5 -8 -9 -25 -9 -24 0 -31 4 -26
15 3 8 2 14 -2 14 -20 -3 -32 3 -32 16 0 8 -6 15 -14 15 -8 0 -13 11 -12 28
l1 27 120 5 c66 4 116 7 111 8 -5 1 -3 8 3 16 8 10 9 16 1 21 -6 4 -7 12 -1
22 12 22 2 55 -15 49 -8 -3 -13 -2 -13 2 1 4 1 19 0 35 l-1 27 -97 0 c-54 0
-105 -5 -113 -10z m151 -32 c1 -7 1 -16 0 -20 0 -4 5 -5 12 -2 22 8 19 -43 -3
-59 -11 -8 -17 -17 -13 -20 3 -4 -21 -7 -55 -7 -48 0 -62 3 -62 15 0 8 -7 15
-15 15 -8 0 -15 5 -15 10 0 6 7 13 15 16 8 4 15 12 15 20 0 8 7 14 15 14 8 0
15 7 15 15 0 19 89 22 91 3z"/>
<path d="M3750 1525 l0 -165 30 0 30 0 0 136 c0 74 3 133 8 131 9 -6 33 19 25
27 -4 3 5 6 19 6 14 0 31 7 38 15 11 13 2 15 -69 15 l-81 0 0 -165z"/>
<path d="M3990 1525 c0 -145 2 -165 16 -165 12 0 15 7 12 25 -3 14 -2 28 3 31
5 2 4 15 -1 28 -5 15 -5 27 2 34 6 6 6 12 0 16 -6 4 -7 18 -3 34 4 15 5 38 1
52 -4 14 -2 34 3 45 7 13 6 20 -1 23 -5 1 -8 12 -5 22 4 14 0 20 -11 20 -14 0
-16 -20 -16 -165z"/>
<path d="M4170 1675 c0 -8 -7 -15 -16 -15 -11 0 -14 -8 -12 -27 3 -28 28 -45
28 -19 0 11 9 16 30 16 20 0 30 5 30 15 0 10 10 15 30 15 27 0 35 -8 31 -32 0
-4 7 -4 17 -1 9 3 14 2 10 -2 -5 -5 1 -14 12 -22 23 -17 26 -33 6 -33 -8 0
-18 -5 -22 -12 -5 -7 -3 -8 6 -3 9 6 11 4 6 -4 -5 -8 -28 -11 -62 -10 -29 2
-57 0 -60 -4 -4 -3 -15 -2 -25 4 -13 6 -19 6 -19 0 0 -6 -7 -8 -15 -5 -11 5
-13 2 -9 -10 4 -11 1 -16 -10 -16 -12 0 -16 -10 -16 -45 0 -33 4 -45 15 -45
10 0 15 -10 15 -30 0 -28 3 -31 33 -30 17 0 58 -1 90 -2 31 -2 57 1 57 7 0 5
5 4 11 -2 6 -6 20 -8 31 -6 16 5 19 13 17 49 -2 24 0 46 4 50 3 4 2 15 -4 25
-5 11 -6 19 -2 19 4 0 8 14 8 30 0 17 -4 30 -8 30 -4 0 -3 9 3 20 8 15 8 20
-2 20 -9 0 -9 3 -1 11 13 13 -4 62 -18 53 -5 -3 -9 2 -9 10 0 13 -15 16 -90
16 -73 0 -90 -3 -90 -15z m146 -182 c-4 -10 -4 -14 0 -10 12 12 34 -14 34 -40
0 -18 -4 -24 -15 -19 -8 3 -14 2 -14 -2 4 -26 -4 -32 -46 -32 -33 0 -45 4 -45
15 0 10 -10 15 -28 15 -25 0 -29 4 -30 30 0 20 4 30 14 30 8 0 14 7 14 15 0
12 13 15 61 15 54 0 60 -2 55 -17z"/>
<path d="M4500 1663 c1 -16 1 -31 0 -35 -4 -19 -3 -76 3 -91 4 -10 2 -17 -3
-17 -6 0 -6 -9 0 -24 5 -13 6 -26 3 -29 -8 -9 -9 -97 0 -97 4 0 10 -1 15 -2
10 -4 20 82 10 88 -5 3 -4 12 2 19 6 7 7 15 3 18 -4 3 -6 35 -5 71 4 65 4 66
33 66 20 0 29 5 29 16 0 10 6 14 14 11 7 -3 18 -1 24 5 8 8 14 3 22 -17 8 -20
14 -25 22 -17 6 6 16 8 23 6 10 -4 13 -40 14 -137 2 -134 6 -149 41 -140 16 4
18 19 19 149 2 188 5 184 -155 184 l-116 0 2 -27z"/>
<path d="M3288 1123 c-10 -3 -18 -11 -18 -19 0 -9 -11 -14 -31 -14 -29 0 -31
-2 -27 -30 4 -23 1 -30 -13 -30 -15 0 -17 -12 -18 -90 -1 -74 2 -90 14 -90 10
0 15 -10 15 -30 0 -27 3 -30 30 -30 20 0 30 -5 30 -15 0 -10 11 -15 33 -16 76
-3 123 5 120 20 -2 6 4 11 13 11 10 0 14 6 10 15 -3 8 -2 14 2 14 31 -5 46 39
32 91 -4 14 -3 40 1 59 4 20 3 43 -2 53 -7 13 -6 18 3 19 7 0 3 5 -9 11 -13 6
-23 17 -23 25 0 8 -12 13 -30 13 -21 0 -30 5 -30 16 0 8 -4 13 -9 9 -5 -3 -12
-1 -16 5 -4 6 -12 7 -24 0 -10 -5 -22 -6 -27 -1 -5 4 -17 6 -26 4z m96 -66 c3
3 6 -1 6 -10 0 -9 6 -17 14 -17 8 0 14 -8 14 -17 0 -10 0 -22 2 -28 1 -5 2
-38 1 -72 -1 -49 -4 -63 -16 -63 -8 0 -15 -7 -15 -16 0 -12 -7 -15 -25 -12
-14 3 -25 1 -25 -4 0 -5 -8 -4 -18 1 -12 6 -22 7 -29 0 -15 -15 -56 48 -50 77
2 14 1 27 -3 29 -4 3 -4 21 0 41 5 20 6 43 3 50 -3 8 1 14 11 14 9 0 16 7 16
16 0 13 8 15 35 12 19 -2 35 0 35 4 0 5 8 4 19 -1 10 -6 21 -7 25 -4z"/>
<path d="M3641 1111 c-9 -9 -28 -18 -41 -19 -14 -2 -26 -5 -28 -6 -1 -2 -2
-71 -3 -154 0 -140 8 -201 25 -174 3 5 14 8 24 6 16 -5 17 6 14 147 -3 128 -1
151 11 146 8 -3 18 -2 23 3 11 10 54 -6 54 -20 0 -5 7 -10 15 -10 8 0 15 -7
15 -15 0 -8 6 -15 14 -15 9 0 14 -11 14 -32 0 -18 1 -37 2 -43 1 -5 1 -14 0
-20 -1 -5 -1 -28 -1 -50 1 -22 1 -52 1 -67 0 -19 5 -28 15 -28 13 0 15 21 15
137 0 75 3 133 7 130 3 -4 12 2 20 13 18 26 93 29 93 4 0 -8 4 -13 9 -9 11 6
26 -33 17 -42 -3 -4 -1 -12 5 -20 8 -9 8 -13 1 -13 -7 0 -8 -10 -3 -27 4 -16
5 -40 1 -54 -4 -15 -4 -33 0 -40 5 -7 4 -21 -1 -30 -6 -11 -5 -20 1 -24 5 -3
6 -13 3 -21 -5 -14 -3 -15 14 -6 11 6 23 9 26 5 13 -12 18 28 20 156 2 117 0
132 -15 137 -10 3 -18 12 -18 20 0 8 -7 14 -15 14 -8 0 -14 5 -12 12 1 7 -3
12 -10 13 -6 0 -15 3 -18 7 -4 4 -16 3 -26 -3 -12 -6 -19 -6 -19 0 0 13 -41 1
-46 -13 -7 -19 -84 -20 -98 -2 -17 23 -85 27 -105 7z"/>
<path d="M4206 1121 c8 -8 -19 -31 -35 -31 -25 0 -43 -21 -30 -36 7 -9 4 -14
-10 -19 -19 -6 -21 -14 -21 -111 0 -62 4 -103 9 -99 5 3 12 -4 16 -15 3 -11
13 -20 21 -20 8 0 14 -6 14 -13 0 -16 17 -19 93 -16 17 0 37 0 42 -1 25 -6 45
1 45 15 0 8 7 15 15 15 10 0 15 10 15 30 0 27 -3 30 -30 30 -19 0 -30 -5 -30
-14 0 -10 -16 -15 -51 -18 -41 -2 -54 1 -63 14 -6 10 -16 18 -23 18 -8 0 -13
13 -13 31 l0 30 73 -1 c39 -1 93 -1 120 -1 l47 1 0 60 c0 47 -3 60 -15 60 -9
0 -15 6 -14 13 5 37 -2 47 -31 47 -21 0 -30 5 -30 16 0 8 -4 13 -9 9 -5 -3
-12 -1 -16 4 -4 7 -15 7 -31 1 -14 -6 -23 -7 -21 -2 3 4 -5 7 -18 7 -13 0 -21
-2 -19 -4z m114 -77 c0 -8 7 -14 15 -14 10 0 15 -10 15 -30 l0 -30 -90 0 -90
0 0 30 c0 20 5 30 15 30 8 0 15 6 15 14 0 9 13 14 41 14 23 1 43 3 46 6 9 9
33 -6 33 -20z"/>
<path d="M4590 1118 c0 -4 -7 -5 -15 -1 -10 3 -15 0 -13 -8 2 -8 -6 -14 -18
-14 -34 -1 -56 -24 -44 -45 6 -11 7 -21 3 -23 -5 -3 -7 -64 -5 -136 3 -106 6
-131 18 -131 11 0 14 24 14 135 0 109 3 135 14 135 8 0 17 7 20 16 3 9 15 14
28 13 13 -2 28 -1 33 3 13 8 55 -9 55 -22 0 -5 7 -10 15 -10 13 0 15 -22 15
-135 l0 -135 29 0 30 0 3 149 c2 82 0 147 -4 145 -3 -2 -15 6 -25 19 -10 13
-26 21 -36 19 -10 -2 -24 4 -31 14 -13 17 -86 28 -86 12z"/>
<path d="M2903 1089 c-25 -9 -39 -29 -21 -29 7 -1 3 -9 -11 -20 -13 -11 -20
-20 -16 -20 4 0 2 -6 -4 -14 -7 -8 -8 -17 -3 -20 23 -14 -21 -106 -50 -106 -5
0 -9 19 -8 43 4 85 0 107 -15 107 -10 0 -15 10 -15 30 0 26 -3 30 -29 30 -26
0 -29 -3 -33 -40 -3 -32 0 -41 14 -46 14 -4 18 -16 18 -50 0 -33 4 -44 16 -44
11 0 15 -8 14 -27 -5 -65 0 -93 15 -93 8 0 15 -6 15 -14 0 -18 35 -27 49 -13
6 6 11 28 11 50 0 21 3 36 8 34 18 -11 38 48 21 63 -10 8 11 71 21 65 6 -4 10
1 10 9 0 9 6 16 13 16 10 0 14 -15 14 -51 1 -31 7 -57 17 -68 9 -10 16 -30 16
-45 0 -15 9 -39 20 -53 11 -14 20 -22 20 -18 0 4 6 3 13 -3 7 -6 18 -8 24 -4
13 9 20 53 10 69 -4 7 1 14 13 18 17 5 20 15 20 65 0 47 3 59 18 62 15 4 18
13 16 42 -2 25 1 39 11 43 30 11 15 31 -25 35 -35 3 -42 0 -46 -17 -3 -12 -4
-25 -3 -31 1 -5 0 -13 -1 -19 -1 -5 -1 -25 0 -43 1 -25 -3 -35 -17 -38 -15 -4
-18 -12 -15 -33 3 -20 0 -28 -12 -28 -15 0 -21 25 -17 70 1 9 -4 17 -12 17
-17 0 -28 45 -15 58 5 5 -4 21 -20 39 -22 22 -34 28 -49 22z"/>
<path d="M2941 590 c1 -44 -1 -83 -4 -86 -4 -4 -2 -15 4 -25 5 -11 6 -19 1
-19 -9 0 -10 -36 -1 -44 2 -3 2 -34 -1 -70 -3 -36 -2 -76 1 -90 4 -14 3 -28
-1 -31 -5 -3 -7 -12 -3 -20 6 -18 49 -20 59 -4 10 17 10 99 0 99 -6 0 -5 5 1
11 7 7 8 21 3 39 -5 16 -5 31 -2 35 3 3 5 22 4 41 -3 34 -2 35 28 31 16 -3 30
-1 30 4 0 6 7 6 18 0 12 -6 22 -7 28 -1 15 15 58 -18 45 -34 -7 -8 -3 -17 14
-30 19 -14 22 -22 15 -32 -7 -7 -7 -14 -1 -18 5 -3 6 -17 3 -31 -11 -41 -2
-125 14 -125 10 0 13 30 13 146 1 145 1 145 -26 170 -15 14 -29 21 -31 16 -2
-6 -11 -8 -20 -5 -9 2 -42 5 -72 6 l-55 2 -3 40 c-1 22 -2 55 -2 73 1 29 -2
32 -30 32 l-31 0 2 -80z"/>
<path d="M2010 549 c0 -21 -4 -30 -13 -26 -18 7 -63 -18 -49 -27 6 -4 9 -13 5
-21 -4 -11 3 -15 27 -15 28 0 31 -3 30 -27 -1 -16 -2 -70 -1 -120 1 -76 4 -93
16 -93 8 0 15 -6 15 -14 0 -7 10 -16 23 -20 17 -5 19 -8 8 -15 -9 -6 5 -9 42
-9 53 1 55 2 47 23 -5 13 -6 26 -3 29 4 3 -6 6 -21 6 -14 0 -29 7 -32 15 -4 8
-13 15 -20 15 -22 0 -16 204 6 206 8 1 20 3 25 4 6 1 19 2 30 1 16 -2 20 4 20
25 -2 27 -15 33 -82 37 -7 0 -13 13 -13 29 0 24 -4 28 -30 28 -27 0 -30 -3
-30 -31z"/>
<path d="M3688 553 c-2 -16 -7 -28 -13 -28 -29 -2 -56 -18 -47 -27 6 -6 8 -17
5 -26 -5 -12 -1 -14 15 -10 12 4 22 2 22 -4 0 -5 5 -6 10 -3 6 4 10 -37 10
-114 0 -105 2 -121 16 -121 10 0 14 -5 10 -15 -4 -11 0 -15 11 -13 10 2 18 -3
18 -12 0 -11 13 -15 47 -16 27 -1 45 2 42 7 -3 5 0 9 6 9 8 0 8 6 0 20 -6 12
-21 20 -35 20 -16 0 -25 6 -25 15 0 8 -7 15 -15 15 -12 0 -15 18 -15 106 l0
106 34 -3 c39 -4 72 17 56 36 -5 6 -7 14 -4 17 2 3 -2 8 -11 11 -8 4 -15 3
-15 -2 0 -4 -13 -6 -30 -3 -25 4 -30 9 -30 33 0 25 -4 29 -29 29 -25 0 -30 -4
-33 -27z"/>
<path d="M2280 514 c0 -14 -8 -24 -22 -27 -12 -4 -19 -9 -15 -13 4 -4 -2 -14
-14 -22 -13 -9 -17 -18 -11 -25 5 -7 6 -22 3 -35 -11 -42 -1 -142 15 -142 9 0
14 -11 14 -30 0 -26 3 -30 29 -30 16 0 31 -6 34 -14 9 -23 97 -19 123 6 15 13
24 16 29 9 11 -19 25 -2 25 30 0 25 -4 29 -28 29 -15 0 -32 -8 -38 -18 -9 -13
-22 -16 -63 -14 -28 2 -51 9 -51 14 0 6 -6 16 -14 22 -22 17 -25 51 -3 50 9
-1 18 2 18 7 1 5 2 15 3 22 1 6 8 10 16 9 31 -8 110 -7 110 1 0 4 8 4 18 -1
22 -11 56 -1 61 18 10 44 7 60 -10 65 -13 4 -19 16 -19 35 0 30 -14 47 -25 30
-4 -7 -13 -6 -27 1 -15 8 -17 13 -8 19 7 5 -2 9 -24 12 -20 2 -36 2 -36 -2 0
-9 -75 -5 -82 5 -4 6 -8 0 -8 -11z m150 -71 c0 -7 6 -13 14 -13 18 0 27 -35
13 -49 -15 -15 -160 -14 -174 0 -13 13 4 62 17 54 5 -3 11 2 14 10 8 21 116
19 116 -2z"/>
<path d="M2673 522 c-12 -2 -34 -17 -47 -33 -14 -16 -29 -30 -33 -30 -4 -1 -7
-5 -5 -10 1 -5 -1 -9 -5 -9 -10 0 -8 -94 2 -109 3 -6 2 -11 -4 -11 -7 0 -7 -8
-2 -23 5 -13 6 -30 1 -37 -11 -17 -2 -40 16 -40 8 0 14 -7 14 -15 0 -10 10
-15 30 -15 20 0 30 -5 30 -15 0 -20 73 -20 90 0 7 8 23 15 36 15 15 0 24 6 24
16 0 9 6 14 14 11 9 -4 13 4 12 26 -1 18 -4 33 -8 35 -23 7 -48 0 -48 -13 0
-8 -7 -15 -15 -15 -8 0 -15 -7 -15 -16 0 -11 -6 -15 -20 -11 -11 3 -22 1 -25
-3 -3 -4 -14 -6 -25 -3 -18 5 -24 15 -21 35 0 4 -7 4 -16 1 -10 -4 -14 -2 -9
5 3 6 2 13 -4 17 -6 4 -7 12 -3 18 10 16 10 86 1 80 -5 -2 -4 7 1 20 6 14 7
28 4 31 -4 3 1 6 10 6 10 0 17 7 17 16 0 12 8 15 34 13 19 -2 38 0 42 3 13 13
44 -13 44 -37 0 -25 14 -34 41 -28 12 4 17 17 17 49 1 42 0 44 -28 44 -19 0
-30 5 -30 14 0 18 -27 24 -62 15 -15 -4 -28 -4 -30 -1 -2 4 -13 6 -25 4z"/>
<path d="M3364 513 c4 -9 -1 -17 -14 -20 -18 -5 -20 -14 -20 -78 0 -56 4 -74
15 -79 8 -3 15 -1 15 5 0 6 6 6 18 1 9 -5 23 -7 30 -5 6 3 12 -2 12 -11 0 -12
11 -16 45 -16 32 0 45 -4 45 -14 0 -8 7 -16 15 -20 8 -3 12 -12 9 -21 -4 -9
-9 -13 -12 -10 -3 2 -11 -3 -17 -13 -16 -22 -115 -19 -115 4 0 8 -7 14 -16 14
-8 0 -13 4 -10 9 7 10 -13 20 -29 14 -6 -2 -9 -21 -7 -43 4 -37 7 -40 33 -40
18 0 29 -5 29 -13 0 -10 17 -14 60 -15 46 0 60 3 60 14 0 9 11 14 30 14 27 0
30 3 30 30 0 19 5 30 14 30 23 0 27 39 5 53 -10 6 -19 18 -19 25 0 7 -4 11 -9
7 -5 -3 -12 4 -16 15 -6 18 -15 20 -81 20 -60 0 -74 3 -74 15 0 9 -7 18 -15
21 -8 4 -15 10 -15 15 0 5 7 9 15 9 8 0 15 7 15 15 0 12 13 15 60 15 47 0 60
-3 60 -15 0 -10 10 -15 30 -15 27 0 30 3 30 30 0 21 -5 30 -16 30 -8 0 -13 4
-9 9 6 11 -30 25 -43 17 -4 -2 -14 -1 -21 4 -8 4 -25 5 -40 1 -14 -5 -39 -4
-54 0 -23 6 -28 5 -23 -8z"/>
<path d="M4013 520 c-13 -5 -23 -14 -23 -20 0 -6 -4 -9 -9 -5 -5 3 -12 1 -16
-4 -3 -6 -13 -7 -22 -4 -13 5 -15 1 -11 -25 4 -26 1 -32 -14 -32 -16 0 -18
-10 -18 -90 0 -73 3 -90 15 -90 10 0 15 -10 15 -30 0 -27 3 -30 30 -30 20 0
30 -5 30 -14 0 -12 14 -15 60 -15 45 1 60 4 60 15 0 8 10 14 26 14 23 0 63 33
64 53 0 4 -20 7 -45 7 -33 0 -45 -4 -45 -15 0 -12 -13 -15 -60 -15 -47 0 -60
3 -60 15 0 8 -6 15 -13 15 -8 0 -14 6 -14 13 0 6 -2 19 -4 27 -3 9 3 14 14 14
11 -1 17 5 17 18 0 16 5 19 25 16 14 -3 25 -1 25 4 0 5 5 6 11 3 13 -9 109
-12 109 -4 0 3 11 4 24 2 22 -5 23 -3 16 41 -4 25 -3 47 2 48 12 4 -37 58 -52
58 -6 0 -8 5 -5 10 3 6 1 10 -5 10 -6 0 -9 4 -6 9 4 5 -9 6 -28 1 -19 -4 -40
-4 -47 1 -17 10 -18 10 -46 -1z m97 -76 c0 -8 7 -14 16 -14 10 0 14 -6 11 -15
-4 -8 -2 -17 4 -20 23 -15 -7 -22 -90 -24 l-90 -2 1 31 c1 18 6 30 15 30 7 0
13 7 13 16 0 10 6 14 15 11 8 -4 16 -3 19 1 8 14 86 1 86 -14z"/>
<path d="M4333 523 c-7 -3 -13 -11 -13 -19 0 -8 -7 -14 -15 -14 -13 0 -15 -23
-15 -150 l0 -150 30 0 30 0 0 136 c0 116 2 135 15 131 8 -4 17 -2 19 2 3 5 16
6 29 4 25 -5 46 21 27 32 -5 3 -6 13 -3 22 4 11 3 14 -6 9 -15 -10 -80 -14
-83 -5 -2 3 -9 4 -15 2z"/>
<path d="M4564 515 c4 -12 -19 -36 -27 -29 -3 3 -7 -24 -9 -61 -3 -75 6 -91
53 -87 19 2 31 -2 35 -12 4 -11 19 -16 50 -16 32 0 44 -4 44 -15 0 -8 6 -15
14 -15 8 0 17 -7 20 -15 3 -10 1 -15 -7 -13 -6 2 -13 -2 -15 -7 -6 -17 -28
-25 -77 -27 -45 -1 -71 14 -59 34 3 4 -2 5 -11 2 -10 -4 -15 -2 -13 7 2 8 -6
14 -19 15 -14 1 -20 -3 -16 -10 4 -6 6 -25 4 -43 -2 -31 0 -33 28 -33 21 0 31
-5 31 -15 0 -12 13 -15 60 -15 47 0 60 3 60 15 0 10 10 15 30 15 23 0 30 5 30
19 0 28 11 52 21 45 5 -3 9 9 9 25 0 21 -5 31 -15 31 -8 0 -15 7 -15 15 0 8
-7 15 -15 15 -8 0 -15 7 -15 16 0 12 -11 15 -52 14 -29 -1 -57 -1 -63 0 -5 1
-19 2 -30 1 -17 -2 -17 0 -5 8 13 9 9 14 -10 13 -3 0 -11 7 -19 15 -11 12 -10
15 8 20 12 3 21 11 21 18 0 8 19 13 60 14 47 1 60 -2 60 -14 0 -10 10 -15 30
-15 27 0 30 3 30 30 0 19 -5 30 -14 30 -8 0 -18 9 -21 20 -5 15 -11 18 -22 11
-9 -5 -29 -5 -45 -1 -17 5 -28 5 -28 -1 0 -6 -5 -7 -12 -3 -18 11 -69 10 -64
-1z"/>
</g>
</svg>
